<svg xmlns="http://www.w3.org/2000/svg" version="1.1" xmlns:xlink="http://www.w3.org/1999/xlink" xmlns:svgjs="http://svgjs.com/svgjs" width="1440" height="628" preserveAspectRatio="none" viewBox="0 0 1440 628"><g mask="url(&quot;#SvgjsMask3940&quot;)" fill="none"><rect width="1440" height="628" x="0" y="0" fill="rgba(2, 7, 53, 1)"></rect><rect width="132" height="132" clip-path="url(&quot;#SvgjsClipPath3941&quot;)" x="505" y="1.36" fill="url(#SvgjsPattern3942)" transform="rotate(110.16, 571, 67.36)"></rect><rect width="176.12" height="176.12" clip-path="url(&quot;#SvgjsClipPath3943&quot;)" x="928.19" y="422.3" fill="url(#SvgjsPattern3944)" transform="rotate(53.28, 1016.25, 510.36)"></rect><circle r="75.18199111825902" cx="102.73" cy="293.64" stroke="rgba(0, 181, 255, 1)" stroke-width="1.91" stroke-dasharray="4, 4"></circle><rect width="204" height="204" clip-path="url(&quot;#SvgjsClipPath3945&quot;)" x="1335.74" y="62.4" fill="url(#SvgjsPattern3946)" transform="rotate(221.86, 1437.74, 164.4)"></rect><path d="M80.44 2L67.73 0.43 66.46-12.31 53.75-13.88 52.49-26.62 39.78-28.19 38.52-40.94M86.16-3.59L73.45-5.16 72.19-17.9 59.48-19.47 58.22-32.21 45.51-33.78 44.25-46.52M91.88-9.18L79.17-10.75 77.91-23.49 65.2-25.06 63.94-37.8 51.23-39.37 49.97-52.11" stroke="rgba(0, 181, 255, 1)" stroke-width="1" stroke-dasharray="3, 3"></path><path d="M419.26 124.09L409.71 115.56 415.94 104.37 406.38 95.84 412.61 84.65 403.05 76.12 409.28 64.93" stroke="rgba(215, 2, 109, 1)" stroke-width="1" stroke-dasharray="3, 2"></path><path d="M1062.86 162.98L1071.02 172.85 1063.19 182.98 1071.35 192.84 1063.51 202.97 1071.67 212.84 1063.84 222.97M1054.86 163.11L1063.02 172.98 1055.19 183.11 1063.35 192.97 1055.51 203.1 1063.67 212.97 1055.84 223.1M1046.86 163.24L1055.03 173.11 1047.19 183.24 1055.35 193.1 1047.51 203.23 1055.67 213.1 1047.84 223.23" stroke="rgba(92, 0, 249, 1)" stroke-width="1" stroke-dasharray="3, 2"></path><circle r="103.28300288876399" cx="1343.65" cy="484.07" stroke="rgba(0, 181, 255, 1)" stroke-width="1.23"></circle><rect width="180" height="180" clip-path="url(&quot;#SvgjsClipPath3947&quot;)" x="1329.61" y="163.23" fill="url(#SvgjsPattern3948)" transform="rotate(44.44, 1419.61, 253.23)"></rect><path d="M313.14 191.34 L389.73 177.37L392.7540991794373 225.6740991794373z" stroke="rgba(215, 2, 109, 1)" stroke-width="2.31"></path><path d="M402.04 608.97a5.6 5.6 0 1 0-10.76 3.09 5.6 5.6 0 1 0 10.76-3.09zM386.66 613.38a5.6 5.6 0 1 0-10.76 3.09 5.6 5.6 0 1 0 10.76-3.09zM371.28 617.8a5.6 5.6 0 1 0-10.76 3.09 5.6 5.6 0 1 0 10.76-3.09zM355.91 622.21a5.6 5.6 0 1 0-10.77 3.1 5.6 5.6 0 1 0 10.77-3.1zM428.38 584.76a5.6 5.6 0 1 0-10.76 3.09 5.6 5.6 0 1 0 10.76-3.09zM413 589.17a5.6 5.6 0 1 0-10.76 3.09 5.6 5.6 0 1 0 10.76-3.09zM397.63 593.59a5.6 5.6 0 1 0-10.77 3.09 5.6 5.6 0 1 0 10.77-3.09zM382.25 598a5.6 5.6 0 1 0-10.77 3.1 5.6 5.6 0 1 0 10.77-3.1z" stroke="rgba(215, 2, 109, 1)" stroke-width="1" stroke-dasharray="4, 4"></path></g><defs><mask id="SvgjsMask3940"><rect width="1440" height="628" fill="#ffffff"></rect></mask><pattern x="0" y="0" width="6" height="6" patternUnits="userSpaceOnUse" id="SvgjsPattern3942"><path d="M3 1L3 5M1 3L5 3" stroke="rgba(215, 2, 109, 1)" fill="none" stroke-width="1.78"></path></pattern><clipPath id="SvgjsClipPath3941"><circle r="33" cx="571" cy="67.36"></circle></clipPath><pattern x="0" y="0" width="12.58" height="12.58" patternUnits="userSpaceOnUse" id="SvgjsPattern3944"><path d="M6.29 1L6.29 11.58M1 6.29L11.58 6.29" stroke="rgba(0, 181, 255, 1)" fill="none" stroke-width="1.11"></path></pattern><clipPath id="SvgjsClipPath3943"><circle r="44.03" cx="1016.25" cy="510.36"></circle></clipPath><pattern x="0" y="0" width="6" height="6" patternUnits="userSpaceOnUse" id="SvgjsPattern3946"><path d="M3 1L3 5M1 3L5 3" stroke="rgba(92, 0, 249, 1)" fill="none" stroke-width="1"></path></pattern><clipPath id="SvgjsClipPath3945"><circle r="51" cx="1437.74" cy="164.4"></circle></clipPath><pattern x="0" y="0" width="6" height="6" patternUnits="userSpaceOnUse" id="SvgjsPattern3948"><path d="M0 6L3 0L6 6" stroke="rgba(215, 2, 109, 1)" fill="none"></path></pattern><clipPath id="SvgjsClipPath3947"><circle r="45" cx="1419.61" cy="253.23"></circle></clipPath></defs></svg>